<?xml version="1.0" encoding="UTF-8" standalone="no"?>
<!-- Created with Inkscape (http://www.inkscape.org/) -->

<svg
   xmlns:dc="http://purl.org/dc/elements/1.1/"
   xmlns:cc="http://creativecommons.org/ns#"
   xmlns:rdf="http://www.w3.org/1999/02/22-rdf-syntax-ns#"
   xmlns:svg="http://www.w3.org/2000/svg"
   xmlns="http://www.w3.org/2000/svg"
   xmlns:sodipodi="http://sodipodi.sourceforge.net/DTD/sodipodi-0.dtd"
   xmlns:inkscape="http://www.inkscape.org/namespaces/inkscape"
   width="12"
   height="24"
   viewBox="0 0 12 23.999999"
   id="svg2"
   version="1.1"
   inkscape:version="0.91 r13725"
   sodipodi:docname="navbar-logo.svg"
   inkscape:export-filename="/home/djwhitt/Work/personal/neowar/assets/images/navbar-logo.png"
   inkscape:export-xdpi="19.799999"
   inkscape:export-ydpi="19.799999">
  <defs
     id="defs4" />
  <sodipodi:namedview
     id="base"
     pagecolor="#000000"
     bordercolor="#666666"
     borderopacity="1.0"
     inkscape:pageopacity="0"
     inkscape:pageshadow="2"
     inkscape:zoom="15.839192"
     inkscape:cx="28.259528"
     inkscape:cy="9.726201"
     inkscape:document-units="px"
     inkscape:current-layer="layer1"
     showgrid="false"
     inkscape:window-width="1914"
     inkscape:window-height="1029"
     inkscape:window-x="0"
     inkscape:window-y="22"
     inkscape:window-maximized="0"
     fit-margin-top="0"
     fit-margin-left="0"
     fit-margin-right="0"
     fit-margin-bottom="0"
     units="px" />
  <metadata
     id="metadata7">
    <rdf:RDF>
      <cc:Work
         rdf:about="">
        <dc:format>image/svg+xml</dc:format>
        <dc:type
           rdf:resource="http://purl.org/dc/dcmitype/StillImage" />
        <dc:title />
      </cc:Work>
    </rdf:RDF>
  </metadata>
  <g
     inkscape:label="Layer 1"
     inkscape:groupmode="layer"
     id="layer1"
     transform="translate(-249.049,-743.61129)">
    <g
       style="font-style:normal;font-variant:normal;font-weight:normal;font-stretch:normal;font-size:25px;line-height:125%;font-family:'Nimbus Mono';-inkscape-font-specification:'Nimbus Mono';letter-spacing:0px;word-spacing:0px;opacity:0.98999999;fill:#eeeeee;fill-opacity:1;stroke:none;stroke-width:1px;stroke-linecap:butt;stroke-linejoin:miter;stroke-opacity:1"
       id="text3336">
      <path
         d="m 253.04094,757.07001 q 0,0.68359 0.24414,1.11084 0.24414,0.41504 0.67139,0.68359 0.43945,0.25635 1.02539,0.43945 0.59814,0.1709 1.28174,0.36621 1.75781,0.48829 2.4414,0.92774 0.6958,0.43945 1.09863,1.12305 0.40284,0.68359 0.40284,1.7456 0,0.81787 -0.36621,1.89209 -0.35401,1.07422 -0.78125,1.75781 l -2.23389,-0.90332 q 0.67139,-1.12304 0.67139,-1.89209 0,-0.48828 -0.25635,-0.81787 -0.24414,-0.32959 -0.76904,-0.57373 -0.5127,-0.24414 -2.02637,-0.63476 -1.94092,-0.42725 -2.78321,-0.91553 -0.83007,-0.48828 -1.30615,-1.28174 -0.46386,-0.79346 -0.46386,-2.01416 0,-2.36816 1.7456,-5.37109 1.74561,-3.01514 4.98047,-6.29883 l 0,-0.0488 -1.55029,0.0488 -3.84522,0 0,-2.30713 8.55713,0 0,2.31934 q -3.27148,3.22265 -5.00488,5.95703 -1.7334,2.73437 -1.7334,4.6875 z"
         style="font-style:normal;font-variant:normal;font-weight:bold;font-stretch:normal;font-size:25px;font-family:'Liberation Sans';-inkscape-font-specification:'Liberation Sans Bold';fill:#eeeeee;fill-opacity:1"
         id="path3434" />
    </g>
  </g>
</svg>
