<?xml version="1.0" encoding="UTF-8" standalone="no"?>
<!-- Created with Inkscape (http://www.inkscape.org/) -->

<svg
   xmlns:dc="http://purl.org/dc/elements/1.1/"
   xmlns:cc="http://creativecommons.org/ns#"
   xmlns:rdf="http://www.w3.org/1999/02/22-rdf-syntax-ns#"
   xmlns:svg="http://www.w3.org/2000/svg"
   xmlns="http://www.w3.org/2000/svg"
   xmlns:sodipodi="http://sodipodi.sourceforge.net/DTD/sodipodi-0.dtd"
   xmlns:inkscape="http://www.inkscape.org/namespaces/inkscape"
   width="20"
   height="24"
   viewBox="0 0 22.807495 26.726659"
   id="svg5659"
   version="1.1"
   inkscape:version="0.91 r13725"
   sodipodi:docname="navbar-logo.svg">
  <defs
     id="defs5661" />
  <sodipodi:namedview
     id="base"
     pagecolor="#000000"
     bordercolor="#666666"
     borderopacity="1.0"
     inkscape:pageopacity="0"
     inkscape:pageshadow="2"
     inkscape:zoom="25.085758"
     inkscape:cx="16.28024"
     inkscape:cy="12.255397"
     inkscape:document-units="px"
     inkscape:current-layer="layer1"
     showgrid="false"
     units="px"
     inkscape:window-width="1920"
     inkscape:window-height="1032"
     inkscape:window-x="0"
     inkscape:window-y="22"
     inkscape:window-maximized="0" />
  <metadata
     id="metadata5664">
    <rdf:RDF>
      <cc:Work
         rdf:about="">
        <dc:format>image/svg+xml</dc:format>
        <dc:type
           rdf:resource="http://purl.org/dc/dcmitype/StillImage" />
        <dc:title></dc:title>
      </cc:Work>
    </rdf:RDF>
  </metadata>
  <g
     inkscape:label="Layer 1"
     inkscape:groupmode="layer"
     id="layer1"
     transform="translate(0,-1050.2851)">
    <g
       id="g4965"
       transform="matrix(1.8379444,0,0,1.8379444,-11.651403,-891.27883)">
      <g
         style="fill:#eeeeee;fill-opacity:1;stroke:#eeeeee;stroke-opacity:1"
         id="g6368">
        <g
           style="clip-rule:evenodd;fill:#eeeeee;fill-opacity:1;fill-rule:evenodd;stroke:#eeeeee;stroke-width:0.9986366;stroke-linecap:round;stroke-linejoin:round;stroke-miterlimit:1.41420996;stroke-dasharray:none;stroke-opacity:1"
           transform="matrix(0.16215428,0,0,0.1621543,-66.439526,1014.2649)"
           id="g4221" />
        <g
           style="clip-rule:evenodd;fill:#eeeeee;fill-opacity:1;fill-rule:evenodd;stroke:#eeeeee;stroke-linecap:round;stroke-linejoin:round;stroke-miterlimit:1.41420996;stroke-opacity:1"
           transform="matrix(0.05227802,0,0,0.05227802,-20.74217,1041.4891)"
           id="g4225">
          <path
             inkscape:connector-curvature="0"
             d="m 544.324,362.81 c -2.504,0.048 -4.664,-1.751 -5.069,-4.223 -2.187,-13.345 -8.832,-53.884 -10.939,-66.739 -0.161,-0.986 0.118,-1.993 0.765,-2.754 0.647,-0.762 1.596,-1.201 2.595,-1.201 25.54,0 165.427,0 195.081,0 1.037,0 1.984,0.589 2.442,1.519 0.459,0.931 0.349,2.041 -0.283,2.863 -22.963,29.896 -156.459,203.695 -183.48,238.872 -0.694,0.904 -1.886,1.265 -2.964,0.898 -1.079,-0.366 -1.804,-1.379 -1.804,-2.518 0,-12.818 0,-37.531 0,-44.205 0,-1.1 0.361,-2.169 1.028,-3.044 10.255,-13.446 94.103,-123.385 111.293,-145.924 0.578,-0.758 0.676,-1.779 0.253,-2.633 -0.423,-0.855 -1.294,-1.396 -2.247,-1.396 -13.479,0 -50.06,0 -62.874,0 -1.139,0 -2.222,0.491 -2.973,1.347 -0.751,0.856 -1.097,1.994 -0.948,3.122 0.687,5.239 1.826,13.926 2.57,19.604 0.187,1.422 -0.241,2.855 -1.177,3.942 -0.935,1.087 -2.289,1.724 -3.722,1.751 -9.592,0.184 -28.899,0.553 -37.547,0.719 z"
             style="fill:#eeeeee;fill-opacity:1;stroke:#eeeeee;stroke-opacity:1"
             id="path4227" />
        </g>
        <g
           style="clip-rule:evenodd;fill:#eeeeee;fill-opacity:1;fill-rule:evenodd;stroke:#eeeeee;stroke-linecap:round;stroke-linejoin:round;stroke-miterlimit:1.41420996;stroke-opacity:1"
           transform="matrix(-0.05227802,0,0,-0.05227802,45.830144,1085.8084)"
           id="g4229">
          <path
             inkscape:connector-curvature="0"
             d="m 544.324,362.81 c -2.504,0.048 -4.664,-1.751 -5.069,-4.223 -2.187,-13.345 -8.832,-53.884 -10.939,-66.739 -0.161,-0.986 0.118,-1.993 0.765,-2.754 0.647,-0.762 1.596,-1.201 2.595,-1.201 25.54,0 165.427,0 195.081,0 1.037,0 1.984,0.589 2.442,1.519 0.459,0.931 0.349,2.041 -0.283,2.863 -22.963,29.896 -156.459,203.695 -183.48,238.872 -0.694,0.904 -1.886,1.265 -2.964,0.898 -1.079,-0.366 -1.804,-1.379 -1.804,-2.518 0,-12.818 0,-37.531 0,-44.205 0,-1.1 0.361,-2.169 1.028,-3.044 10.255,-13.446 94.103,-123.385 111.293,-145.924 0.578,-0.758 0.676,-1.779 0.253,-2.633 -0.423,-0.855 -1.294,-1.396 -2.247,-1.396 -13.479,0 -50.06,0 -62.874,0 -1.139,0 -2.222,0.491 -2.973,1.347 -0.751,0.856 -1.097,1.994 -0.948,3.122 0.687,5.239 1.826,13.926 2.57,19.604 0.187,1.422 -0.241,2.855 -1.177,3.942 -0.935,1.087 -2.289,1.724 -3.722,1.751 -9.592,0.184 -28.899,0.553 -37.547,0.719 z"
             style="fill:#eeeeee;fill-opacity:1;stroke:#eeeeee;stroke-opacity:1"
             id="path4231" />
        </g>
      </g>
    </g>
  </g>
</svg>
